<?xml version="1.0" encoding="UTF-8" standalone="no"?>
<!DOCTYPE svg PUBLIC "-//W3C//DTD SVG 20010904//EN"
              "http://www.w3.org/TR/2001/REC-SVG-20010904/DTD/svg10.dtd">

<svg xmlns="http://www.w3.org/2000/svg"
     width="8.33333in" height="8.33333in"
     viewBox="0 0 750 750">
	<path id="cy-stroke"
        fill="#FFF" stroke="none" stroke-width="1"
        d="M 390.00,413.00
           C 376.71,426.29 367.76,434.35 350.00,441.55
             329.51,449.85 314.27,449.03 293.00,449.00
             268.44,448.96 241.66,437.93 224.00,420.96
             202.99,400.78 190.05,367.04 190.00,338.00
             190.00,338.00 190.00,319.00 190.00,319.00
             190.25,297.97 198.27,272.55 209.69,255.00
             228.46,226.18 261.72,209.05 296.00,209.00
             296.00,209.00 312.00,209.00 312.00,209.00
             326.54,209.17 345.02,213.86 358.00,220.37
             378.71,230.75 393.01,246.48 403.25,267.00
             407.94,276.42 413.51,291.51 414.00,302.00
             414.00,302.00 395.00,302.00 395.00,302.00
             395.00,302.00 394.97,299.67 390.58,288.00
             385.78,275.26 379.09,264.01 369.72,254.09
             350.48,233.74 324.93,227.69 298.00,228.00
             289.33,228.11 275.08,231.03 267.00,234.20
             247.52,241.86 231.09,256.43 221.32,275.00
             200.87,313.84 205.24,371.63 236.09,403.99
             245.07,413.41 256.82,420.52 269.00,424.95
             277.93,428.19 287.51,429.99 297.00,430.00
             297.00,430.00 310.00,430.00 310.00,430.00
             328.00,429.97 346.74,422.94 361.00,412.10
             364.68,409.31 375.99,399.50 376.23,395.00
             376.35,392.66 374.24,389.89 373.00,388.00
             373.00,388.00 364.00,375.00 364.00,375.00
             345.12,413.71 285.54,419.22 255.00,391.83
             234.49,373.44 230.70,348.98 231.00,323.00
             231.22,304.66 239.63,281.80 253.01,269.09
             266.74,256.05 282.61,251.49 301.00,250.18
             304.42,249.94 305.84,250.53 309.00,250.83
             324.15,252.30 335.60,254.76 348.00,264.52
             361.26,274.94 366.85,286.54 372.00,302.00
             372.00,302.00 359.00,302.00 359.00,302.00
             356.73,302.00 351.03,302.02 351.03,302.00
             351.03,302.04 347.49,295.33 346.07,293.00
             343.66,289.04 340.46,285.26 337.00,282.18
             325.67,272.11 314.61,269.83 300.00,270.00
             269.19,270.37 250.08,300.60 250.08,329.00
             250.08,329.00 250.84,336.00 250.84,336.00
             254.04,365.97 270.57,387.31 302.00,389.68
             314.44,390.61 330.24,383.58 338.91,374.91
             342.52,371.30 345.82,366.50 348.22,362.00
             349.45,359.69 352.02,354.00 352.00,354.00
             352.00,353.99 364.44,353.96 367.00,354.00
             368.89,354.04 373.02,354.02 372.99,354.00
             373.00,354.02 376.71,360.04 378.00,362.00
             378.00,362.00 388.00,377.00 388.00,377.00
             390.52,370.66 391.18,368.53 392.99,362.00
             393.53,360.05 395.02,354.00 395.01,353.99
             395.00,354.02 401.03,354.00 403.00,354.00
             403.00,354.00 410.00,354.00 410.00,354.00
             420.26,354.02 417.96,354.03 417.97,354.03
             417.97,354.03 459.00,418.00 459.00,418.00
             459.00,418.00 489.81,370.00 489.81,370.00
             491.89,366.64 500.02,354.01 500.02,354.01
             500.02,354.01 505.36,354.01 507.00,354.00
             507.00,354.00 521.00,354.00 521.00,354.00
             521.00,354.00 504.42,381.00 504.42,381.00
             504.42,381.00 478.00,422.00 478.00,422.00
             478.00,422.00 460.00,450.00 460.00,450.00
             455.05,445.81 443.26,426.55 439.19,420.00
             439.19,420.00 410.00,375.00 410.00,375.00
             410.00,375.00 404.00,390.00 404.00,390.00
             403.13,391.99 401.21,395.18 401.54,397.28
             402.00,400.16 410.24,411.79 412.31,415.00
             412.31,415.00 437.34,454.00 437.34,454.00
             443.41,463.30 448.96,472.09 449.00,472.04
             449.00,472.04 449.00,595.00 449.00,595.00
             449.00,595.00 430.00,595.00 430.00,595.00
             430.00,595.00 429.96,476.26 429.96,476.26
             429.96,476.30 424.45,467.95 418.69,459.00
             418.69,459.00 402.00,433.00 402.00,433.00
             398.56,427.84 392.08,418.43 390.00,413.00 Z
           M 453.43,476.04M 426.44,357.19M 492.39,355.48M 501.18,353.56M 396.19,354.63M 374.63,354.41M 352.66,353.84M 352.62,303.33M 395.11,302.30" />
  <path id="cy"
        fill="#FFF" stroke="none" stroke-width="1"
        d="M 471.00,595.00
           C 471.00,595.00 471.00,476.00 471.00,476.00
             471.00,473.82 471.02,469.00 471.03,469.06
             471.02,469.06 480.75,453.89 483.33,450.00
             483.33,450.00 513.00,404.00 513.00,404.00
             513.00,404.00 536.95,367.00 536.95,367.00
             541.06,360.52 545.50,354.12 545.50,354.00
             545.50,354.00 566.00,354.00 566.00,354.00
             566.00,354.00 545.67,387.00 545.67,387.00
             545.67,387.00 510.05,442.00 510.05,442.00
             510.05,442.00 497.95,461.00 497.95,461.00
             497.95,461.00 491.51,472.00 491.51,472.00
             491.51,472.00 491.00,479.00 491.00,479.00
             491.00,479.00 491.00,595.00 491.00,595.00
             491.00,595.00 471.00,595.00 471.00,595.00 Z
           M 581.25,370.25M 472.53,469.44" />
</svg>
