<svg xmlns="http://www.w3.org/2000/svg" xmlns:xlink="http://www.w3.org/1999/xlink" width="750" viewBox="0 0 750 750" height="750" version="1.0"><defs><g id="a"><path d="M 232.933594 -94.0625 L 214.417969 -94.0625 C 205.53125 -47.402344 171.832031 -18.144531 124.429688 -18.144531 L 119.984375 -18.144531 C 64.4375 -18.144531 27.402344 -58.882812 27.402344 -119.613281 C 27.402344 -180.71875 64.4375 -221.453125 119.984375 -221.453125 L 124.429688 -221.453125 C 171.089844 -221.453125 204.789062 -192.570312 214.417969 -147.019531 L 232.933594 -147.019531 C 222.933594 -203.308594 182.199219 -239.601562 124.800781 -239.601562 L 119.613281 -239.601562 C 53.328125 -239.601562 9.257812 -191.457031 9.257812 -119.613281 C 9.257812 -47.773438 53.695312 0 119.984375 0 L 124.429688 0 C 182.570312 0 223.675781 -36.664062 232.933594 -94.0625 Z M 190.71875 -94.0625 L 171.460938 -94.0625 C 163.683594 -72.214844 145.539062 -58.882812 122.207031 -58.882812 C 90.359375 -58.882812 68.878906 -83.324219 68.878906 -119.613281 C 68.878906 -155.90625 90.359375 -179.976562 122.207031 -179.976562 C 145.167969 -179.976562 162.941406 -167.386719 170.71875 -147.019531 L 190.347656 -147.019531 C 181.460938 -178.496094 156.277344 -198.125 122.207031 -198.125 C 79.25 -198.125 50.363281 -166.644531 50.363281 -119.613281 C 50.363281 -72.214844 79.25 -40.734375 122.207031 -40.734375 C 157.019531 -40.734375 182.199219 -61.105469 190.71875 -94.0625 Z M 190.71875 -94.0625"/></g><g id="b"><path d="M 3.695312 -239.195312 L 81.335938 -118.671875 L 81.335938 0 L 99.820312 0 L 99.820312 -120.523438 L 23.292969 -239.195312 Z M 151.578125 -239.195312 L 110.171875 -174.867188 L 68.394531 -239.195312 L 48.800781 -239.195312 L 110.171875 -144.921875 L 171.171875 -239.195312 Z M 196.679688 -239.195312 L 132.722656 -140.117188 L 122.742188 -125.328125 L 122.742188 0 L 141.226562 0 L 141.226562 -123.109375 L 216.273438 -239.195312 Z M 196.679688 -239.195312"/></g></defs><g fill="#FFF"><use x="180.931" y="449.017" xmlns:xlink="http://www.w3.org/1999/xlink" xlink:href="#a" xlink:type="simple" xlink:actuate="onLoad" xlink:show="embed"/></g><g fill="#FFF"><use x="349.077" y="594.096" xmlns:xlink="http://www.w3.org/1999/xlink" xlink:href="#b" xlink:type="simple" xlink:actuate="onLoad" xlink:show="embed"/></g></svg>